<?xml version="1.0" standalone="no"?>
<!DOCTYPE svg PUBLIC "-//W3C//DTD SVG 20010904//EN"
 "http://www.w3.org/TR/2001/REC-SVG-20010904/DTD/svg10.dtd">
<svg version="1.0" xmlns="http://www.w3.org/2000/svg"
 width="512.000000pt" height="512.000000pt" viewBox="0 0 512.000000 512.000000"
 preserveAspectRatio="xMidYMid meet">
<metadata>
Created by potrace 1.11, written by Peter Selinger 2001-2013
</metadata>
<g transform="translate(0.000000,512.000000) scale(0.100000,-0.100000)"
fill="#000000" stroke="none">
<path d="M1280 4737 c-43 -5 -93 -22 -150 -49 -149 -72 -259 -208 -295 -367
-21 -97 -21 -3448 1 -3530 34 -128 116 -248 216 -315 26 -18 45 -36 40 -41 -4
-5 -2 -5 4 -2 7 4 33 -3 60 -14 97 -43 123 -44 1435 -43 1246 1 1254 1 1319
22 187 61 323 202 370 385 19 76 19 114 20 1486 0 962 -4 1418 -11 1439 -6 18
-82 99 -196 208 -103 99 -248 238 -322 310 -146 141 -336 324 -441 424 -36 34
-76 69 -89 78 -22 15 -114 17 -960 17 -515 0 -965 -4 -1001 -8z m1772 -489 c2
-290 -1 -258 27 -340 53 -159 183 -292 335 -343 77 -26 141 -31 384 -30 l242
0 0 -35 c1 -19 1 -620 1 -1335 1 -1212 -1 -1304 -17 -1345 -27 -69 -77 -125
-142 -157 l-57 -28 -1270 0 -1270 0 -54 30 c-66 37 -111 88 -135 156 -19 51
-19 110 -19 1733 0 1283 3 1691 12 1725 28 99 108 178 206 202 17 4 418 7 893
8 l862 1 2 -242z"/>
<path d="M1891 4208 c-78 -14 -169 -87 -212 -169 -16 -32 -23 -63 -24 -114 -1
-38 -7 -82 -15 -97 -15 -32 -1 -104 29 -147 10 -14 24 -44 31 -66 28 -89 59
-128 133 -166 114 -60 268 7 307 133 7 24 21 50 30 59 43 38 75 154 51 182 -7
9 -8 29 -3 58 18 95 -8 201 -53 224 -11 6 -33 23 -50 39 -58 55 -141 79 -224
64z"/>
<path d="M1675 3404 c-22 -13 -80 -40 -128 -61 -141 -58 -166 -103 -173 -313
l-5 -115 548 2 c301 0 555 2 564 2 14 1 16 14 13 93 -6 189 -26 250 -94 293
-22 14 -42 25 -46 25 -3 0 -53 23 -111 50 -59 28 -110 47 -113 43 -8 -8 -91
-264 -97 -296 -2 -10 -8 -28 -15 -40 -10 -20 -13 -17 -33 43 l-21 64 23 41
c29 50 29 80 1 99 -31 22 -91 20 -111 -2 -22 -24 -21 -47 4 -99 l21 -43 -23
-67 c-12 -38 -24 -63 -25 -58 -37 131 -118 365 -127 364 -7 0 -30 -12 -52 -25z"/>
<path d="M1445 2673 c-88 -42 -97 -159 -17 -218 27 -20 44 -20 1127 -21 787
-1 1111 2 1135 10 68 23 101 119 62 182 -42 66 26 62 -1182 62 -933 -1 -1099
-3 -1125 -15z"/>
<path d="M1452 2169 c-98 -38 -104 -189 -9 -230 15 -6 47 -12 70 -13 24 -2 48
-6 55 -10 7 -4 12 -4 12 1 0 4 268 8 595 8 327 0 595 -4 595 -8 0 -5 6 -5 12
-1 7 5 211 8 453 9 490 1 486 0 519 69 28 59 16 116 -34 161 -22 20 -38 20
-1134 22 -633 0 -1121 -3 -1134 -8z"/>
<path d="M1442 1653 c-43 -21 -63 -52 -68 -104 -3 -34 1 -49 21 -75 14 -19 36
-39 48 -46 17 -10 271 -13 1127 -13 l1105 -1 36 23 c61 40 77 109 39 170 -40
67 35 63 -1177 63 -998 0 -1101 -2 -1131 -17z"/>
<path d="M1425 1142 c-46 -29 -70 -78 -61 -126 8 -43 47 -91 84 -103 15 -5
304 -8 642 -8 674 1 663 0 700 60 36 58 22 128 -33 169 -28 21 -38 21 -662 26
l-633 5 -37 -23z"/>
</g>
</svg>
